<?xml version="1.0" encoding="iso-8859-1"?>
<!-- Generator: Adobe Illustrator 19.0.0, SVG Export Plug-In . SVG Version: 6.00 Build 0)  -->
<svg version="1.1" id="Layer_1" xmlns="http://www.w3.org/2000/svg" xmlns:xlink="http://www.w3.org/1999/xlink" x="0px" y="0px"
	 viewBox="0 0 511.999 511.999" style="enable-background:new 0 0 511.999 511.999;" xml:space="preserve">
<g>
	<path style="fill:#806749;" d="M136.949,504.389h-10.825c-5.023,0-9.134-4.11-9.134-9.134V475.65c0-5.023,4.11-9.134,9.134-9.134
		h10.825c5.023,0,9.134,4.11,9.134,9.134v19.605C146.083,500.279,141.973,504.389,136.949,504.389z"/>
	<path style="fill:#806749;" d="M385.873,504.389h-10.825c-5.023,0-9.134-4.11-9.134-9.134V475.65c0-5.023,4.11-9.134,9.134-9.134
		h10.825c5.023,0,9.134,4.11,9.134,9.134v19.605C395.007,500.279,390.897,504.389,385.873,504.389z"/>
	<path style="fill:#806749;" d="M339.482,7.611H172.515c-6.698,0-12.178,5.48-12.178,12.178v29.247
		c0,6.698,5.48,12.178,12.178,12.178h166.966c6.698,0,12.178-5.48,12.178-12.178V19.789C351.66,13.091,346.18,7.611,339.482,7.611z"
		/>
</g>
<path style="fill:#5F4D37;" d="M214.125,49.036V19.789c0-6.698,5.48-12.178,12.178-12.178h-53.787
	c-6.698,0-12.178,5.48-12.178,12.178v29.247c0,6.698,5.48,12.178,12.178,12.178h53.787
	C219.605,61.214,214.125,55.734,214.125,49.036z"/>
<path style="fill:#3E3D42;" d="M461.725,480.271H50.273c-13.396,0-24.356-10.96-24.356-24.356V63.019
	c0-13.396,10.96-24.356,24.356-24.356h411.451c13.396,0,24.356,10.96,24.356,24.356v392.896
	C486.081,469.311,475.121,480.271,461.725,480.271z"/>
<g>
	<path style="fill:#2D2D30;" d="M137.742,455.915V63.019c0-13.396,10.96-24.356,24.356-24.356H50.273
		c-13.396,0-24.356,10.96-24.356,24.356v392.896c0,13.396,10.96,24.356,24.356,24.356h111.825
		C148.702,480.271,137.742,469.311,137.742,455.915z"/>
	<rect x="442.786" y="81.959" style="fill:#2D2D30;" width="19.792" height="355.023"/>
</g>
<rect x="69.211" y="81.959" style="fill:#57565C;" width="373.574" height="355.023"/>
<g>
	<rect x="69.211" y="81.959" style="fill:#3E3D42;" width="68.532" height="355.023"/>
	<path style="fill:#3E3D42;" d="M289.592,282.348l-8.97-8.97c-1.974-1.974-1.974-5.203,0-7.176l8.97-8.97
		c1.973-1.974,5.202-1.974,7.176,0l8.97,8.97c1.974,1.973,1.974,5.202,0,7.176l-8.97,8.97
		C294.795,284.322,291.566,284.322,289.592,282.348z"/>
	<path style="fill:#3E3D42;" d="M261.516,254.275l-8.97-8.97c-1.974-1.973-1.974-5.202,0-7.176l8.97-8.97
		c1.974-1.973,5.203-1.973,7.176,0l8.97,8.97c1.974,1.974,1.974,5.203,0,7.176l-8.97,8.97
		C266.718,256.249,263.489,256.249,261.516,254.275z"/>
	<path style="fill:#3E3D42;" d="M315.977,254.275l-8.97-8.97c-1.974-1.974-1.974-5.202,0-7.176l8.97-8.97
		c1.974-1.974,5.202-1.974,7.176,0l8.97,8.97c1.974,1.974,1.974,5.202,0,7.176l-8.97,8.97
		C321.18,256.248,317.951,256.248,315.977,254.275z"/>
	<path style="fill:#3E3D42;" d="M289.592,226.199l-8.97-8.97c-1.974-1.974-1.974-5.202,0-7.176l8.97-8.97
		c1.973-1.974,5.202-1.974,7.176,0l8.97,8.97c1.974,1.974,1.974,5.202,0,7.176l-8.97,8.97
		C294.795,228.172,291.566,228.172,289.592,226.199z"/>
	<path style="fill:#3E3D42;" d="M289.592,336.151l-8.97-8.97c-1.974-1.973-1.974-5.202,0-7.176l8.97-8.97
		c1.973-1.973,5.202-1.973,7.176,0l8.97,8.97c1.974,1.974,1.974,5.203,0,7.176l-8.97,8.97
		C294.795,338.125,291.566,338.125,289.592,336.151z"/>
	<path style="fill:#3E3D42;" d="M342.363,336.151l-8.97-8.97c-1.973-1.974-1.973-5.202,0-7.176l8.97-8.97
		c1.974-1.973,5.202-1.973,7.176,0l8.97,8.97c1.974,1.974,1.974,5.202,0,7.176l-8.97,8.97
		C347.565,338.125,344.336,338.125,342.363,336.151z"/>
	<path style="fill:#3E3D42;" d="M402.893,208.788l-8.97-8.97c-1.974-1.973-1.974-5.202,0-7.176l8.97-8.97
		c1.974-1.973,5.202-1.973,7.176,0l8.97,8.97c1.974,1.974,1.974,5.203,0,7.176l-8.97,8.97
		C408.096,210.762,404.867,210.762,402.893,208.788z"/>
	<path style="fill:#3E3D42;" d="M374.817,236.865l-8.97-8.97c-1.974-1.974-1.974-5.203,0-7.176l8.97-8.97
		c1.974-1.974,5.202-1.974,7.176,0l8.97,8.97c1.973,1.974,1.973,5.202,0,7.176l-8.97,8.97
		C380.02,238.837,376.79,238.837,374.817,236.865z"/>
	<path style="fill:#3E3D42;" d="M200.654,359.154l-8.97-8.97c-1.973-1.974-1.973-5.203,0-7.176l8.97-8.97
		c1.973-1.974,5.202-1.974,7.176,0l8.97,8.97c1.974,1.973,1.974,5.202,0,7.176l-8.97,8.97
		C205.856,361.128,202.627,361.128,200.654,359.154z"/>
	<path style="fill:#3E3D42;" d="M172.548,387.231l-8.97-8.97c-1.974-1.974-1.974-5.203,0-7.176l8.97-8.97
		c1.974-1.973,5.202-1.973,7.176,0l8.97,8.97c1.974,1.974,1.974,5.203,0,7.176l-8.97,8.97
		C177.751,389.204,174.522,389.204,172.548,387.231z"/>
	<path style="fill:#3E3D42;" d="M315.977,310.425l-8.97-8.97c-1.974-1.973-1.974-5.202,0-7.176l8.97-8.97
		c1.974-1.974,5.202-1.974,7.176,0l8.97,8.97c1.974,1.973,1.974,5.202,0,7.176l-8.97,8.97
		C321.18,312.397,317.951,312.397,315.977,310.425z"/>
</g>
<rect x="69.211" y="81.959" style="fill:#D9CCBC;" width="373.574" height="71.749"/>
<g>
	<rect x="69.211" y="81.959" style="fill:#C0AB91;" width="68.532" height="71.749"/>
	<path style="fill:#C0AB91;" d="M407.887,139.818h-10.148c-6.698,0-12.178-5.48-12.178-12.178v-19.62
		c0-6.698,5.48-12.178,12.178-12.178h10.148c6.698,0,12.178,5.48,12.178,12.178v19.62
		C420.065,134.338,414.585,139.818,407.887,139.818z"/>
</g>
<circle style="fill:#A78966;" cx="121.415" cy="106.67" r="11.91"/>
<g>
	<circle style="fill:#C0AB91;" cx="160.994" cy="106.67" r="11.91"/>
	<circle style="fill:#C0AB91;" cx="218.059" cy="106.67" r="11.91"/>
	<circle style="fill:#C0AB91;" cx="257.637" cy="106.67" r="11.91"/>
	<circle style="fill:#C0AB91;" cx="315.484" cy="106.67" r="11.91"/>
	<circle style="fill:#C0AB91;" cx="355.062" cy="106.67" r="11.91"/>
</g>
<path style="fill:#FF3F62;" d="M396.386,139.818h-10.148c-6.698,0-12.178-5.48-12.178-12.178v-19.62
	c0-6.698,5.48-12.178,12.178-12.178h10.148c6.698,0,12.178,5.48,12.178,12.178v19.62
	C408.564,134.338,403.084,139.818,396.386,139.818z"/>
<g>
	<circle style="fill:#FFE477;" cx="113.915" cy="106.67" r="11.91"/>
	<circle style="fill:#FFE477;" cx="153.494" cy="106.67" r="11.91"/>
	<circle style="fill:#FFE477;" cx="210.569" cy="106.67" r="11.91"/>
	<circle style="fill:#FFE477;" cx="250.148" cy="106.67" r="11.91"/>
	<circle style="fill:#FFE477;" cx="307.994" cy="106.67" r="11.91"/>
	<circle style="fill:#FFE477;" cx="347.573" cy="106.67" r="11.91"/>
</g>
<g>
	<path style="fill:#57565C;" d="M153.499,142.355H113.92c-4.203,0-7.611-3.407-7.611-7.611c0-4.204,3.408-7.611,7.611-7.611h39.579
		c4.203,0,7.611,3.407,7.611,7.611C161.111,138.947,157.703,142.355,153.499,142.355z"/>
	<path style="fill:#57565C;" d="M250.149,142.355H210.57c-4.203,0-7.611-3.407-7.611-7.611c0-4.204,3.408-7.611,7.611-7.611h39.579
		c4.203,0,7.611,3.407,7.611,7.611C257.76,138.947,254.352,142.355,250.149,142.355z"/>
	<path style="fill:#57565C;" d="M347.574,142.355h-39.579c-4.203,0-7.611-3.407-7.611-7.611c0-4.204,3.408-7.611,7.611-7.611h39.579
		c4.203,0,7.611,3.407,7.611,7.611C355.185,138.947,351.777,142.355,347.574,142.355z"/>
</g>
<path style="fill:#A78966;" d="M78.147,33.25H57.743c-22.124,0-40.123,17.999-40.123,40.123v20.404c0,5.208,4.222,9.431,9.431,9.431
	h51.096c5.208,0,9.431-4.222,9.431-9.431V42.681C87.578,37.473,83.355,33.25,78.147,33.25z"/>
<path style="fill:#806749;" d="M73.968,48.682h13.609V42.68c0-5.208-4.222-9.431-9.431-9.431H57.743
	c-22.124,0-40.123,17.999-40.123,40.123v20.404c0,5.208,4.222,9.431,9.431,9.431h6.795V88.805
	C33.846,60.158,46.317,48.682,73.968,48.682z"/>
<circle style="fill:#5F4D37;" cx="65.78" cy="81.644" r="7.596"/>
<path style="fill:#A78966;" d="M494.377,93.778V73.373c0-22.124-17.999-40.123-40.123-40.123H433.85
	c-5.208,0-9.431,4.222-9.431,9.431v51.096c0,5.208,4.222,9.431,9.431,9.431h51.096C490.155,103.209,494.377,98.986,494.377,93.778z"
	/>
<path style="fill:#806749;" d="M478.946,89.599v13.609h6.002c5.208,0,9.431-4.222,9.431-9.431V73.373
	c0-22.124-17.999-40.123-40.123-40.123h-20.404c-5.208,0-9.431,4.222-9.431,9.431v6.794h14.403
	C467.47,49.476,478.946,61.947,478.946,89.599z"/>
<circle style="fill:#5F4D37;" cx="445.982" cy="81.411" r="7.596"/>
<path style="fill:#A78966;" d="M433.851,487.61h20.404c22.124,0,40.123-17.999,40.123-40.123v-20.404
	c0-5.208-4.222-9.431-9.431-9.431h-51.096c-5.208,0-9.431,4.222-9.431,9.431v51.096C424.42,483.388,428.642,487.61,433.851,487.61z"
	/>
<path style="fill:#806749;" d="M438.029,472.179H424.42v6.002c0,5.208,4.223,9.431,9.431,9.431h20.404
	c22.124,0,40.123-17.999,40.123-40.123v-20.404c0-5.208-4.222-9.431-9.431-9.431h-6.794v14.403
	C478.152,460.703,465.68,472.179,438.029,472.179z"/>
<circle style="fill:#5F4D37;" cx="446.216" cy="439.214" r="7.596"/>
<path style="fill:#A78966;" d="M17.62,427.083v20.404c0,22.124,17.999,40.123,40.123,40.123h20.404c5.208,0,9.431-4.222,9.431-9.431
	v-51.096c0-5.208-4.222-9.431-9.431-9.431H27.051C21.843,417.653,17.62,421.875,17.62,427.083z"/>
<path style="fill:#806749;" d="M33.052,431.262v-13.609h-6.001c-5.208,0-9.431,4.222-9.431,9.431v20.404
	c0,22.124,17.999,40.123,40.123,40.123h20.404c5.208,0,9.431-4.222,9.431-9.431v-6.795H73.174
	C44.528,471.385,33.052,458.913,33.052,431.262z"/>
<circle style="fill:#5F4D37;" cx="66.015" cy="439.448" r="7.596"/>
<path d="M501.989,93.778V73.373c0-26.321-21.413-47.733-47.734-47.733H433.85c-4.329,0-8.274,1.636-11.283,4.305h-63.295V19.789
	C359.272,8.878,350.394,0,339.483,0H172.515c-10.912,0-19.789,8.878-19.789,19.789v10.156H89.432
	c-3.009-2.67-6.955-4.306-11.284-4.306H57.743c-26.321,0-47.734,21.414-47.734,47.734v20.404c0,6.198,3.337,11.617,8.297,14.6
	v93.603c0,4.204,3.408,7.611,7.611,7.611s7.611-3.407,7.611-7.611v-91.161h28.073v299.223H33.528V239.191
	c0-4.204-3.408-7.611-7.611-7.611s-7.611,3.407-7.611,7.611v173.293c-4.961,2.983-8.297,8.402-8.297,14.6v20.404
	c0,26.321,21.413,47.734,47.734,47.734h20.404c5.517,0,10.415-2.647,13.532-6.724h17.701v6.757c0,9.233,7.512,16.745,16.745,16.745
	h10.825c9.233,0,16.745-7.512,16.745-16.745v-6.757h204.609v6.757c0,9.233,7.512,16.745,16.745,16.745h10.825
	c9.233,0,16.745-7.512,16.745-16.745v-6.757h17.701c3.117,4.078,8.015,6.724,13.532,6.724h20.404
	c26.321,0,47.734-21.414,47.734-47.734v-20.404c0-6.659-3.849-12.424-9.431-15.226V109.003
	C498.14,106.201,501.989,100.437,501.989,93.778z M450.397,410.042V110.819h26.938v299.223H450.397z M433.85,40.863h20.404
	c17.927,0,32.512,14.584,32.512,32.511v20.404c0,1.003-0.816,1.819-1.82,1.819H433.85c-1.003,0-1.819-0.816-1.819-1.819V42.68
	C432.031,41.678,432.847,40.863,433.85,40.863z M95.189,45.168h321.619v28.632H95.189V45.168z M167.949,19.789
	c0-2.475,2.092-4.567,4.567-4.567h166.966c2.475,0,4.567,2.092,4.567,4.567v10.156h-176.1V19.789z M25.231,73.373
	c0-17.927,14.585-32.512,32.512-32.512h20.404c1.003,0,1.819,0.817,1.819,1.82v51.097c0,1.003-0.816,1.819-1.819,1.819H27.05
	c-1.003,0-1.819-0.816-1.819-1.819C25.231,93.779,25.231,73.373,25.231,73.373z M95.189,93.778v-4.756h321.619v4.757
	c0,9.396,7.645,17.041,17.041,17.041h1.324v37.303H76.824V110.82C76.824,110.819,95.189,110.974,95.189,93.778z M76.824,163.344
	h358.351v246.697c0,0-18.069-0.957-18.366,19.323h-92.307c-4.203,0-7.611,3.407-7.611,7.611c0,4.205,3.408,7.611,7.611,7.611h92.307
	v28.689H95.189v-28.689h146.601c4.203,0,7.611-3.407,7.611-7.611c0-4.204-3.408-7.611-7.611-7.611H95.189
	c0,0-0.043-19.011-18.366-19.323V163.344z M79.967,478.18c0,1.003-0.816,1.82-1.819,1.82H57.743
	c-17.927,0-32.512-14.584-32.512-32.512v-20.404c0-1.003,0.816-1.819,1.82-1.819h51.096c1.003,0,1.819,0.816,1.819,1.819v51.096
	H79.967z M138.471,495.255c0,0.825-0.697,1.522-1.522,1.522h-10.825c-0.825,0-1.522-0.697-1.522-1.522v-6.757h13.87V495.255z
	 M387.395,495.255c0,0.825-0.697,1.522-1.522,1.522h-10.825c-0.825,0-1.522-0.697-1.522-1.522v-6.757h13.87V495.255z
	 M486.766,447.487c0,17.927-14.585,32.512-32.512,32.512H433.85c-1.003,0-1.819-0.817-1.819-1.82v-51.097
	c0-1.003,0.816-1.819,1.819-1.819h51.097c1.003,0,1.819,0.816,1.819,1.819V447.487z"/>
<path d="M268.684,444.587h26.893c4.203,0,7.611-3.407,7.611-7.611c0-4.204-3.408-7.611-7.611-7.611h-26.893
	c-4.203,0-7.611,3.407-7.611,7.611C261.073,441.18,264.481,444.587,268.684,444.587z"/>
<g>
</g>
<g>
</g>
<g>
</g>
<g>
</g>
<g>
</g>
<g>
</g>
<g>
</g>
<g>
</g>
<g>
</g>
<g>
</g>
<g>
</g>
<g>
</g>
<g>
</g>
<g>
</g>
<g>
</g>
</svg>
