<?xml version="1.0" encoding="utf-8"?>
<!-- Generator: Adobe Illustrator 23.0.3, SVG Export Plug-In . SVG Version: 6.00 Build 0)  -->
<svg version="1.1" id="Layer_1" xmlns="http://www.w3.org/2000/svg" xmlns:xlink="http://www.w3.org/1999/xlink" x="0px" y="0px"
	 viewBox="0 0 32 32" style="enable-background:new 0 0 32 32;" xml:space="preserve">
<style type="text/css">
	.st0{clip-path:url(#SVGID_2_);}
	.st1{clip-path:url(#SVGID_4_);}
</style>
<g>
	<g>
		<path d="M30,31H2c-0.5522461,0-1-0.4472656-1-1V2c0-0.5527344,0.4477539-1,1-1h28c0.5522461,0,1,0.4472656,1,1v28
			C31,30.5527344,30.5522461,31,30,31z M3,29h26V3H3V29z"/>
	</g>
	<g>
		<path d="M16,25c-4.9624023,0-9-4.0371094-9-9s4.0375977-9,9-9s9,4.0371094,9,9S20.9624023,25,16,25z M16,9
			c-3.8598633,0-7,3.140625-7,7s3.1401367,7,7,7s7-3.140625,7-7S19.8598633,9,16,9z"/>
	</g>
	<g>
		<circle cx="6" cy="6" r="1"/>
	</g>
	<g>
		<circle cx="26" cy="6" r="1"/>
	</g>
	<g>
		<circle cx="6" cy="26" r="1"/>
	</g>
	<g>
		<circle cx="26" cy="26" r="1"/>
	</g>
</g>
</svg>
