<?xml version="1.0" encoding="iso-8859-1"?>
<!-- Generator: Adobe Illustrator 19.0.0, SVG Export Plug-In . SVG Version: 6.00 Build 0)  -->
<svg version="1.1" id="Layer_1" xmlns="http://www.w3.org/2000/svg" xmlns:xlink="http://www.w3.org/1999/xlink" x="0px" y="0px"
	 viewBox="0 0 512 512" style="enable-background:new 0 0 512 512;" xml:space="preserve">
<path style="fill:#C0AB91;" d="M196.209,504.241H87.635c-4.469,0-8.125-3.656-8.125-8.125v-21.753c0-4.469,3.656-8.125,8.125-8.125
	h108.575c4.469,0,8.125,3.656,8.125,8.125v21.753C204.334,500.584,200.678,504.241,196.209,504.241z"/>
<path style="fill:#A78966;" d="M120.726,496.116v-21.753c0-4.469,3.656-8.125,8.125-8.125H87.635c-4.469,0-8.125,3.656-8.125,8.125
	v21.753c0,4.469,3.656,8.125,8.125,8.125h41.217C124.383,504.241,120.726,500.584,120.726,496.116z"/>
<path style="fill:#57565C;" d="M201.652,481.16H76.882c-17.316,0-31.484-14.168-31.484-31.484V39.101
	c0-17.316,14.168-31.484,31.484-31.484h124.77c17.316,0,31.484,14.168,31.484,31.484v410.574
	C233.136,466.992,218.968,481.16,201.652,481.16z"/>
<g>
	<path style="fill:#3E3D42;" d="M79.51,449.676V39.101c0-17.316,14.168-31.484,31.484-31.484H76.882
		c-17.316,0-31.484,14.168-31.484,31.484v410.574c0,17.316,14.168,31.484,31.484,31.484h34.112
		C93.677,481.16,79.51,466.992,79.51,449.676z"/>
	<circle style="fill:#3E3D42;" cx="151.398" cy="362.585" r="54.625"/>
	<circle style="fill:#3E3D42;" cx="151.398" cy="227.569" r="38.858"/>
	<path style="fill:#3E3D42;" d="M147.427,124.958c-10.223,0-18.54-8.317-18.54-18.541s8.317-18.541,18.54-18.541
		c10.223,0,18.541,8.317,18.541,18.541S157.651,124.958,147.427,124.958z"/>
</g>
<circle style="fill:#C0AB91;" cx="139.261" cy="352.236" r="54.625"/>
<path style="fill:#2D2D30;" d="M139.266,381.477c-16.12,0-29.235-13.115-29.235-29.235s13.115-29.235,29.235-29.235
	c16.12,0,29.235,13.115,29.235,29.235S155.386,381.477,139.266,381.477z"/>
<circle style="fill:#C0AB91;" cx="139.261" cy="217.22" r="38.858"/>
<path style="fill:#2D2D30;" d="M139.266,235.758c-10.223,0-18.54-8.317-18.54-18.541s8.317-18.541,18.54-18.541
	c10.223,0,18.541,8.317,18.541,18.541S149.49,235.758,139.266,235.758z"/>
<g>
	<path style="fill:#1D1D1F;" d="M147.427,330.548c5.641,0,10.911,1.611,15.383,4.389c-5.327-7.228-13.896-11.929-23.544-11.929
		c-16.12,0-29.235,13.115-29.235,29.235c0,10.479,5.545,19.684,13.852,24.845c-3.574-4.849-5.69-10.834-5.69-17.305
		C118.192,343.662,131.307,330.548,147.427,330.548z"/>
	<path style="fill:#1D1D1F;" d="M147.427,206.217c2.833,0,5.509,0.657,7.913,1.798c-3.202-5.571-9.2-9.339-16.073-9.339
		c-10.223,0-18.54,8.317-18.54,18.541c0,7.391,4.357,13.767,10.628,16.742c-1.561-2.716-2.468-5.852-2.468-9.203
		C128.887,214.534,137.204,206.217,147.427,206.217z"/>
</g>
<path style="fill:#2D2D30;" d="M139.266,118.991c-10.223,0-18.54-8.317-18.54-18.541c0-10.223,8.317-18.541,18.54-18.541
	c10.223,0,18.541,8.317,18.541,18.541S149.49,118.991,139.266,118.991z"/>
<g>
	<circle style="fill:#D9CCBC;" cx="73.399" cy="38.374" r="7.448"/>
	<circle style="fill:#D9CCBC;" cx="205.134" cy="38.374" r="7.448"/>
	<circle style="fill:#D9CCBC;" cx="205.134" cy="450.406" r="7.448"/>
	<circle style="fill:#D9CCBC;" cx="73.399" cy="450.406" r="7.448"/>
</g>
<path style="fill:#C0AB91;" d="M429.676,504.383H321.1c-4.469,0-8.125-3.656-8.125-8.125v-21.754c0-4.469,3.656-8.125,8.125-8.125
	h108.575c4.469,0,8.125,3.656,8.125,8.125v21.754C437.801,500.727,434.145,504.383,429.676,504.383z"/>
<path style="fill:#A78966;" d="M354.192,496.258v-21.754c0-4.469,3.656-8.125,8.125-8.125H321.1c-4.469,0-8.125,3.656-8.125,8.125
	v21.754c0,4.469,3.656,8.125,8.125,8.125h41.217C357.849,504.383,354.192,500.727,354.192,496.258z"/>
<path style="fill:#57565C;" d="M435.118,481.301h-124.77c-17.316,0-31.484-14.168-31.484-31.484V39.243
	c0-17.316,14.168-31.484,31.484-31.484h124.77c17.316,0,31.484,14.168,31.484,31.484v410.573
	C466.602,467.133,452.434,481.301,435.118,481.301z"/>
<g>
	<circle style="fill:#3E3D42;" cx="384.868" cy="362.728" r="54.625"/>
	<circle style="fill:#3E3D42;" cx="384.868" cy="227.712" r="38.858"/>
	<path style="fill:#3E3D42;" d="M380.894,125.101c-10.223,0-18.54-8.317-18.54-18.541s8.317-18.541,18.54-18.541
		c10.223,0,18.541,8.317,18.541,18.541S391.117,125.101,380.894,125.101z"/>
	<path style="fill:#3E3D42;" d="M312.976,449.817V39.243c0-17.316,14.168-31.484,31.484-31.484h-34.112
		c-17.316,0-31.484,14.168-31.484,31.484v410.573c0,17.316,14.168,31.484,31.484,31.484h34.112
		C327.143,481.301,312.976,467.133,312.976,449.817z"/>
</g>
<circle style="fill:#C0AB91;" cx="372.731" cy="352.378" r="54.625"/>
<path style="fill:#2D2D30;" d="M372.733,381.619c-16.12,0-29.235-13.115-29.235-29.235c0-16.12,13.115-29.235,29.235-29.235
	c16.12,0,29.235,13.115,29.235,29.235C401.968,368.504,388.853,381.619,372.733,381.619z"/>
<circle style="fill:#C0AB91;" cx="372.731" cy="217.362" r="38.858"/>
<path style="fill:#2D2D30;" d="M372.733,235.9c-10.223,0-18.54-8.317-18.54-18.541c0-10.224,8.318-18.541,18.54-18.541
	c10.223,0,18.541,8.317,18.541,18.541C391.275,227.584,382.957,235.9,372.733,235.9z"/>
<g>
	<path style="fill:#1D1D1F;" d="M380.894,330.689c5.641,0,10.911,1.611,15.383,4.389c-5.328-7.228-13.896-11.929-23.544-11.929
		c-16.12,0-29.235,13.115-29.235,29.235c0,10.479,5.545,19.684,13.852,24.845c-3.574-4.849-5.69-10.834-5.69-17.305
		C351.659,343.805,364.774,330.689,380.894,330.689z"/>
	<path style="fill:#1D1D1F;" d="M380.894,206.358c2.833,0,5.509,0.657,7.913,1.799c-3.202-5.571-9.2-9.339-16.073-9.339
		c-10.223,0-18.54,8.317-18.54,18.541c0,7.391,4.357,13.767,10.628,16.742c-1.561-2.716-2.468-5.852-2.468-9.202
		C362.354,214.676,370.671,206.358,380.894,206.358z"/>
</g>
<path style="fill:#2D2D30;" d="M372.733,119.133c-10.223,0-18.54-8.317-18.54-18.541s8.318-18.541,18.54-18.541
	c10.223,0,18.541,8.317,18.541,18.541S382.957,119.133,372.733,119.133z"/>
<g>
	<circle style="fill:#D9CCBC;" cx="306.869" cy="38.515" r="7.448"/>
	<circle style="fill:#D9CCBC;" cx="438.604" cy="38.515" r="7.448"/>
	<circle style="fill:#D9CCBC;" cx="438.604" cy="450.548" r="7.448"/>
	<circle style="fill:#D9CCBC;" cx="306.869" cy="450.548" r="7.448"/>
</g>
<path d="M45.398,274.181c4.207,0,7.617-3.409,7.617-7.617v-35.896c0-4.208-3.41-7.617-7.617-7.617s-7.617,3.409-7.617,7.617v35.896
	C37.781,270.771,41.191,274.181,45.398,274.181z"/>
<path d="M201.652,0H76.882C55.322,0,37.781,17.541,37.781,39.101v154.645c0,4.208,3.41,7.617,7.617,7.617s7.617-3.409,7.617-7.617
	V39.101c0-13.16,10.707-23.867,23.867-23.867h124.77c13.16,0,23.867,10.707,23.867,23.867v410.574
	c0,13.16-10.707,23.867-23.867,23.867H76.882c-13.16,0-23.867-10.707-23.867-23.867V302.782c0-4.208-3.41-7.617-7.617-7.617
	s-7.617,3.409-7.617,7.617v146.894c0,19.868,14.9,36.312,34.112,38.772v7.669c0,8.68,7.062,15.742,15.742,15.742H196.21
	c8.68,0,15.742-7.062,15.742-15.742v-8.726c16.578-4.533,28.801-19.719,28.801-37.715V39.101C240.753,17.541,223.212,0,201.652,0z
	 M196.209,496.624H87.635c-0.261,0-0.508-0.247-0.508-0.508v-7.34h109.591v7.34C196.717,496.377,196.47,496.624,196.209,496.624z"/>
<path d="M139.266,414.483c34.321,0,62.242-27.921,62.242-62.242s-27.921-62.242-62.242-62.242s-62.242,27.921-62.242,62.242
	S104.946,414.483,139.266,414.483z M139.266,305.234c25.92,0,47.008,21.088,47.008,47.008s-21.088,47.008-47.008,47.008
	s-47.008-21.087-47.008-47.008C92.259,326.321,113.347,305.234,139.266,305.234z"/>
<path d="M92.797,217.218c0,25.623,20.847,46.471,46.47,46.471c25.624,0,46.471-20.847,46.471-46.471s-20.847-46.471-46.471-46.471
	C113.643,170.748,92.797,191.594,92.797,217.218z M139.266,185.982c17.224,0,31.236,14.012,31.236,31.236
	s-14.012,31.236-31.236,31.236c-17.223,0-31.235-14.012-31.235-31.236S122.044,185.982,139.266,185.982z"/>
<path d="M165.425,100.45c0-14.424-11.734-26.158-26.158-26.158s-26.157,11.734-26.157,26.158s11.734,26.158,26.157,26.158
	C153.689,126.608,165.425,114.873,165.425,100.45z M128.344,100.45c0-6.024,4.9-10.924,10.923-10.924s10.924,4.9,10.924,10.924
	c0,6.024-4.9,10.924-10.924,10.924C133.243,111.374,128.344,106.473,128.344,100.45z"/>
<path d="M466.602,400.79c4.207,0,7.617-3.409,7.617-7.617V39.243c0-21.561-17.541-39.101-39.101-39.101h-124.77
	c-21.561,0-39.101,17.541-39.101,39.101v410.573c0,19.868,14.9,36.312,34.112,38.772v7.669c0,8.68,7.062,15.742,15.742,15.742
	h108.575c8.68,0,15.742-7.062,15.742-15.742v-8.726c16.578-4.533,28.801-19.719,28.801-37.715v-22.113
	c0-4.208-3.41-7.617-7.617-7.617c-4.207,0-7.617,3.409-7.617,7.617v22.113c0,13.16-10.707,23.867-23.867,23.867H310.348
	c-13.16,0-23.867-10.707-23.867-23.867V39.243c0-13.16,10.707-23.867,23.867-23.867h124.77c13.16,0,23.867,10.707,23.867,23.867
	v353.929C458.985,397.38,462.395,400.79,466.602,400.79z M429.676,496.766H321.102c-0.261,0-0.508-0.247-0.508-0.508v-7.34h109.59
	v7.34C430.184,496.519,429.937,496.766,429.676,496.766z"/>
<path d="M372.733,414.626c34.321,0,62.242-27.921,62.242-62.242s-27.921-62.242-62.242-62.242s-62.242,27.921-62.242,62.242
	S338.413,414.626,372.733,414.626z M372.733,305.376c25.92,0,47.008,21.088,47.008,47.008s-21.088,47.008-47.008,47.008
	s-47.008-21.088-47.008-47.008S346.813,305.376,372.733,305.376z"/>
<path d="M326.263,217.36c0,25.623,20.847,46.471,46.471,46.471c25.623,0,46.47-20.847,46.47-46.471s-20.847-46.471-46.47-46.471
	C347.109,170.89,326.263,191.736,326.263,217.36z M372.733,186.124c17.223,0,31.235,14.012,31.235,31.236
	s-14.012,31.236-31.235,31.236c-17.224,0-31.236-14.012-31.236-31.236S355.51,186.124,372.733,186.124z"/>
<path d="M398.891,100.592c0-14.423-11.734-26.157-26.158-26.157s-26.157,11.734-26.157,26.157c0,14.424,11.734,26.159,26.157,26.159
	S398.891,115.016,398.891,100.592z M361.809,100.592c0-6.024,4.9-10.923,10.923-10.923c6.023,0,10.924,4.899,10.924,10.923
	c0,6.025-4.9,10.925-10.924,10.925S361.809,106.616,361.809,100.592z"/>
<g>
</g>
<g>
</g>
<g>
</g>
<g>
</g>
<g>
</g>
<g>
</g>
<g>
</g>
<g>
</g>
<g>
</g>
<g>
</g>
<g>
</g>
<g>
</g>
<g>
</g>
<g>
</g>
<g>
</g>
</svg>
