<?xml version="1.0" encoding="UTF-8"?>
<!DOCTYPE svg PUBLIC "-//W3C//DTD SVG 1.1//EN" "http://www.w3.org/Graphics/SVG/1.1/DTD/svg11.dtd">
<!-- Creator: CorelDRAW -->
<svg xmlns="http://www.w3.org/2000/svg" xml:space="preserve" width="6.82666in" height="6.82666in" style="shape-rendering:geometricPrecision; text-rendering:geometricPrecision; image-rendering:optimizeQuality; fill-rule:evenodd; clip-rule:evenodd"
viewBox="0 0 6.82666 6.82666"
 xmlns:xlink="http://www.w3.org/1999/xlink">
 <defs>
  <style type="text/css">
   <![CDATA[
    .fil0 {fill:#424242}
    .fil1 {fill:#FFFFFE}
    .fil2 {fill:#FFFFFE;fill-rule:nonzero}
   ]]>
  </style>
 </defs>
 <rect class="fil0" width="6.82666" height="6.82666"/>
 <g id="Layer_x0020_1">
  <metadata id="CorelCorpID_0Corel-Layer"/>
  <g id="_501814136">
   <g>
    <path id="_501815768" class="fil1" d="M1.67974 2.13612l0.706776 0 0 1.35676c0,0.0867717 -0.0709882,0.15776 -0.15776,0.15776l-0.39126 0c-0.0867677,0 -0.157756,-0.0709882 -0.157756,-0.15776l0 -1.35676z"/>
    <path id="_501814832" class="fil1" d="M2.20855 3.62962l0 0.24065c0,0.0862992 -0.078937,0.156906 -0.175425,0.156906l-3.93701e-006 0c-0.0964843,0 -0.175425,-0.0706063 -0.175425,-0.156906l0 -0.242264 0.350854 0.00161417z"/>
    <polygon id="_501815480" class="fil1" points="1.87765,1.32333 2.03307,0.853331 2.1886,1.32333 2.1886,2.18198 1.87765,2.18198 "/>
   </g>
   <path id="_501815072" class="fil2" d="M2.12118 4.02718c0,-0.048626 -0.0394252,-0.0880512 -0.0880551,-0.0880512 -0.048626,0 -0.0880512,0.0394252 -0.0880512,0.0880512l0 0.448583c0,0.247323 0.101118,0.472106 0.26402,0.635012 0.162902,0.162906 0.387681,0.264016 0.635004,0.264016 0.247323,0 0.472106,-0.101114 0.635008,-0.26402 0.162906,-0.162902 0.26402,-0.387685 0.26402,-0.635008l0 -2.75396c0,-0.132575 0.0543071,-0.253169 0.141787,-0.34065 0.0874764,-0.0874803 0.208079,-0.141783 0.34065,-0.141783 0.132571,0 0.253165,0.0543031 0.340646,0.141783 0.0874803,0.0874803 0.141787,0.208075 0.141787,0.34065l0 1.28315c0,0.048626 0.0394213,0.0880512 0.0880512,0.0880512 0.048626,0 0.0880512,-0.0394252 0.0880512,-0.0880512l0 -1.28315c0,-0.181189 -0.074063,-0.34585 -0.193378,-0.465161 -0.119311,-0.119311 -0.283969,-0.193378 -0.465157,-0.193378 -0.181189,0 -0.34585,0.0740669 -0.465165,0.193378 -0.119311,0.119311 -0.193374,0.283972 -0.193374,0.465161l0 2.75396c0,0.198713 -0.0813583,0.379425 -0.212429,0.510496 -0.131071,0.131071 -0.311787,0.212429 -0.510496,0.212429 -0.198705,0 -0.379425,-0.0813583 -0.510492,-0.212425 -0.131071,-0.131075 -0.212425,-0.311787 -0.212425,-0.5105l0 -0.448583z"/>
   <g>
    <path id="_501814976" class="fil1" d="M4.44015 4.69054l0.70678 0 0 -1.35676c0,-0.0867717 -0.0709921,-0.15776 -0.157764,-0.15776l-0.391256 0c-0.0867677,0 -0.15776,0.0709882 -0.15776,0.15776l0 1.35676z"/>
    <path id="_501815360" class="fil1" d="M4.96896 3.19704l0 -0.24065c0,-0.0862992 -0.0789409,-0.156906 -0.175429,-0.156906l-3.93701e-006 0c-0.0964803,0 -0.175425,0.0706063 -0.175425,0.156906l0 0.242264 0.350858 -0.00161417z"/>
    <polygon id="_501815168" class="fil1" points="4.63806,5.50333 4.79348,5.97333 4.94901,5.50333 4.94901,4.64469 4.63806,4.64469 "/>
   </g>
  </g>
 </g>
</svg>
