<?xml version="1.0" encoding="utf-8"?>
<!-- Generator: Adobe Illustrator 23.0.3, SVG Export Plug-In . SVG Version: 6.00 Build 0)  -->
<svg version="1.1" id="Layer_1" xmlns="http://www.w3.org/2000/svg" xmlns:xlink="http://www.w3.org/1999/xlink" x="0px" y="0px"
	 viewBox="0 0 32 32" style="enable-background:new 0 0 32 32;" xml:space="preserve">
<style type="text/css">
	.st0{clip-path:url(#SVGID_2_);}
	.st1{clip-path:url(#SVGID_4_);}
	path {
        fill: white;
    }
</style>
<g>
	<g>
		<path d="M10.2246094,15.0546875c-0.28125,0-0.5644531-0.0517578-0.8349609-0.1582031l-4.7568359-1.875
			C4.2509766,12.8701172,4,12.5019531,4,12.0908203v-5.125c0-0.4111328,0.2509766-0.7792969,0.6328125-0.9306641
			l4.7568359-1.8759766c0.703125-0.2773438,1.4912109-0.1875,2.1152344,0.2363281
			C12.1279297,4.8193359,12.5,5.5224609,12.5,6.2763672v6.5029297c0,0.7539063-0.3720703,1.4570313-0.9951172,1.8808594
			C11.1210938,14.9208984,10.6748047,15.0546875,10.2246094,15.0546875z M6,11.4101563l4.1240234,1.625
			c0.1152344,0.0458984,0.2011719,0.0097656,0.2558594-0.0283203C10.4248047,12.9765625,10.5,12.90625,10.5,12.7792969V6.2763672
			c0-0.1269531-0.0751953-0.1972656-0.1201172-0.2275391c-0.0546875-0.0380859-0.140625-0.0722656-0.2558594-0.0283203l0,0
			L6,7.6464844V11.4101563z M9.7568359,5.0898438h0.0097656H9.7568359z"/>
	</g>
	<g>
		<path d="M5,19.2783203c-0.0957031,0-0.1933594-0.0136719-0.2880859-0.0419922C4.2890625,19.1083984,4,18.7197266,4,18.2783203
			v-6.1875c0-0.3310547,0.1640625-0.640625,0.4375-0.8271484c0.2724609-0.1855469,0.6201172-0.2226563,0.9296875-0.1035156
			l3.25,1.28125c0.2802734,0.1113281,0.4960938,0.3427734,0.5869141,0.6298828
			C9.2949219,13.359375,9.25,13.6728516,9.0839844,13.9248047l-3.25,4.90625
			C5.6445313,19.1152344,5.3291016,19.2783203,5,19.2783203z M6,13.5595703v1.3984375l0.734375-1.1083984L6,13.5595703z"/>
	</g>
	<g>
		<path d="M21.7753906,15.0546875c-0.4501953,0-0.8964844-0.1337891-1.2802734-0.3945313
			C19.8720703,14.2363281,19.5,13.5332031,19.5,12.7792969V6.2763672c0-0.7539063,0.3720703-1.4570313,0.9951172-1.8808594
			c0.6240234-0.4238281,1.4121094-0.5136719,2.1152344-0.2363281l4.7568359,1.8759766
			C27.7490234,6.1865234,28,6.5546875,28,6.9658203v5.125c0,0.4111328-0.2509766,0.7792969-0.6328125,0.9306641l-4.7568359,1.875
			C22.3398438,15.0029297,22.0566406,15.0546875,21.7753906,15.0546875z M21.7734375,6
			c-0.0644531,0-0.1162109,0.0234375-0.1533203,0.0488281C21.5751953,6.0791016,21.5,6.1494141,21.5,6.2763672v6.5029297
			c0,0.1269531,0.0751953,0.1972656,0.1201172,0.2275391c0.0556641,0.0380859,0.1425781,0.0742188,0.2558594,0.0283203
			L26,11.4101563V7.6464844l-4.1240234-1.6259766l0,0C21.8388672,6.0058594,21.8046875,6,21.7734375,6z"/>
	</g>
	<g>
		<path d="M27,19.2783203c-0.3291016,0-0.6445313-0.1630859-0.8339844-0.4472656l-3.25-4.90625
			C22.75,13.6728516,22.7050781,13.359375,22.7958984,13.0712891c0.0908203-0.2871094,0.3066406-0.5185547,0.5869141-0.6298828
			l3.25-1.28125c0.3085938-0.1201172,0.65625-0.0830078,0.9296875,0.1035156S28,11.7597656,28,12.0908203v6.1875
			c0,0.4414063-0.2890625,0.8300781-0.7119141,0.9580078C27.1933594,19.2646484,27.0957031,19.2783203,27,19.2783203z
			 M25.265625,13.8496094L26,14.9580078v-1.3984375L25.265625,13.8496094z"/>
	</g>
	<g>
		<path d="M5,26c-0.5527344,0-1-0.4472656-1-1v-6.7216797c0-0.5527344,0.4472656-1,1-1s1,0.4472656,1,1V25
			C6,25.5527344,5.5527344,26,5,26z"/>
	</g>
	<g>
		<path d="M27,26c-0.5527344,0-1-0.4472656-1-1v-6.7216797c0-0.5527344,0.4472656-1,1-1s1,0.4472656,1,1V25
			C28,25.5527344,27.5527344,26,27,26z"/>
	</g>
	<g>
		<path d="M17.3193359,28c-0.4111328,0-0.7802734-0.2509766-0.9306641-0.6337891l-2.6328125-6.6923828l-1.2402344,2.0595703
			c-0.1806641,0.3007813-0.5058594,0.484375-0.8564453,0.484375H8.40625c-0.5527344,0-1-0.4472656-1-1s0.4472656-1,1-1h2.6875
			l1.9941406-3.3115234c0.1962891-0.3251953,0.5615234-0.5185547,0.9394531-0.4804688
			c0.3798828,0.03125,0.7080078,0.2753906,0.8476563,0.6298828l2.4404297,6.2021484l0.7949219-2.0410156
			c0.1494141-0.3837891,0.5195313-0.6367188,0.9316406-0.6367188H23.59375c0.5527344,0,1,0.4472656,1,1s-0.4472656,1-1,1h-3.8681641
			l-1.4746094,3.7832031C18.1015625,27.7470703,17.7324219,27.9990234,17.3212891,28C17.3203125,28,17.3203125,28,17.3193359,28z"/>
	</g>
</g>
</svg>
